<svg width="96" height="40" viewBox="0 0 96 40" fill="none" xmlns="http://www.w3.org/2000/svg">
<g clip-path="url(#clip0_1044_10544)">
<rect width="40" height="40" rx="20" fill="#3B6CEC"/>
<g clip-path="url(#clip1_1044_10544)">
<path d="M14.095 29.7088C13.7575 29.5119 13.4313 29.2981 13.1219 29.0675C12.835 29.3206 12.5481 29.5738 12.2669 29.8325C12.5706 30.0688 12.8856 30.2881 13.2175 30.4906C14.3931 31.2275 15.7038 31.7788 17.1044 32.0881C17.5094 32.1781 17.92 32.2456 18.3363 32.2963C18.5894 31.9363 18.8481 31.5875 19.1125 31.2331C18.6738 31.205 18.2463 31.1544 17.8244 31.0813C16.4856 30.845 15.2256 30.3725 14.095 29.7088Z" fill="#18181B"/>
<path d="M26.0988 22.3569C25.9581 22.2782 25.8288 22.1825 25.705 22.0757L25.4913 21.8788L25.1819 21.5975C25.1256 21.7832 25.0638 21.9688 24.985 22.1432C24.1413 24.185 22.1331 25.6194 19.7875 25.6194C19.6469 25.6194 19.5063 25.6138 19.3656 25.6025C18.8425 25.5632 18.3419 25.4563 17.8694 25.2819C17.515 25.535 17.1663 25.7938 16.8175 26.0525C17.2169 26.2494 17.6388 26.4069 18.0775 26.5194C18.6231 26.66 19.1969 26.7388 19.7931 26.7388C20.44 26.7388 21.0644 26.6488 21.655 26.48C23.7138 25.8894 25.3675 24.3482 26.1156 22.3569C26.1081 22.3607 26.1025 22.3607 26.0988 22.3569Z" fill="#18181B"/>
<path d="M9.92687 33.6969C9.62312 33.4776 9.32219 33.2447 9.02969 33.0028C8.77094 33.2728 8.53187 33.5338 8.27312 33.8151C8.56 34.0569 8.84687 34.3044 9.15062 34.5294C10.6356 35.6207 12.295 36.4869 14.0781 37.0832C14.4381 37.2013 14.8206 37.2913 15.1919 37.3869C15.3719 37.0438 15.5446 36.7294 15.7358 36.3919C15.3589 36.3019 14.9838 36.1944 14.6181 36.0763C12.925 35.5251 11.3444 34.7151 9.92687 33.6969Z" fill="#18181B"/>
<path d="M30.5819 23.1838C29.4288 27.1044 26.1944 30.1306 22.1613 30.9969C21.8069 31.4244 21.4581 31.8575 21.1206 32.3019C26.5825 31.7169 30.9813 27.5769 31.96 22.2444C31.4931 22.5481 31.0319 22.8631 30.5819 23.1838Z" fill="#EDEDF2"/>
<path d="M2.935 19.1113L1.82125 18.8638C1.79875 19.2406 1.7875 19.6175 1.7875 20C1.7875 24.7475 3.62687 29.0619 6.625 32.2794C6.87812 32.0038 7.13687 31.7281 7.39562 31.4525C4.61125 28.4488 2.9125 24.4213 2.9125 20C2.9125 19.7019 2.91812 19.4038 2.935 19.1113Z" fill="#EDEDF2"/>
<path d="M14.9219 24.6744C15.22 24.4438 15.5238 24.2188 15.8275 23.9937C15.1863 23.3581 14.6969 22.565 14.4213 21.6819L13.1894 21.4062C13.4481 22.6606 14.0613 23.7856 14.9219 24.6744Z" fill="#EDEDF2"/>
<path d="M3.205 16.8669L7.59813 17.8512L8.695 18.0987L13.0938 19.0831L14.1963 19.3306L16.5363 19.8537L17.9706 20.1744L18.7075 20.3375C18.8481 20.7931 19.2756 21.125 19.7819 21.125C19.9 21.125 20.0181 21.1081 20.125 21.0744C20.1644 21.0631 20.1981 21.0462 20.2375 21.035L20.2825 21.0125C20.395 20.9562 20.5019 20.8831 20.5863 20.7931C20.7156 20.6637 20.8113 20.5006 20.8619 20.3206L20.8731 20.27C20.8956 20.1856 20.9069 20.0956 20.9069 20C20.9069 19.4262 20.4794 18.9537 19.9281 18.8862C19.8831 18.8806 19.8325 18.875 19.7819 18.875C19.4894 18.875 19.2194 18.9875 19.0225 19.1731L18.6625 19.0606L17.1494 18.5881L15.6363 18.1156L14.6069 17.795L13.5269 17.4575L9.22375 16.1075L8.14937 15.77L3.85188 14.4256L2.7775 14.0881L1.70312 13.7506C1.41063 14.6 1.17437 15.4775 1 16.3719L2.09688 16.6194L3.205 16.8669Z" fill="#EDEDF2"/>
<path d="M37.7313 18.5994L36.6456 19.28C36.6513 19.3756 36.6513 19.4712 36.6569 19.5669C36.6625 19.7131 36.6625 19.8537 36.6625 20C36.6625 29.3206 29.1081 36.875 19.7875 36.875C19.2194 36.875 18.6512 36.8469 18.1 36.7906C17.8919 37.1394 17.6894 37.4994 17.4925 37.8537C18.2463 37.9494 19.0112 38 19.7875 38C29.7269 38 37.7875 29.9394 37.7875 20C37.7875 19.6794 37.7819 19.3587 37.765 19.0437C37.7537 18.8975 37.7425 18.7456 37.7313 18.5994Z" fill="#EDEDF2"/>
<path d="M14.8881 3.845C15.2481 3.73812 15.6138 3.63688 15.985 3.5525C17.2056 3.27125 18.4825 3.11937 19.7875 3.11937C26.3238 3.11937 31.9994 6.8375 34.8006 12.2769L35.0313 12.3387C35.0931 12.3556 35.155 12.3444 35.2113 12.3106L35.875 11.8944C32.905 6.0275 26.8188 2 19.7875 2C18.325 2 16.9075 2.17437 15.5463 2.50062C15.175 2.59062 14.815 2.69187 14.455 2.80437C14.095 2.91688 13.7406 3.04062 13.3919 3.17L13.825 4.21062C14.1681 4.07562 14.5281 3.9575 14.8881 3.845Z" fill="#EDEDF2"/>
<path d="M27.3025 10.775C27.4544 10.6794 27.6231 10.6119 27.7919 10.5669C25.6375 8.73313 22.8419 7.625 19.7875 7.625C19.0956 7.625 18.4094 7.68125 17.7513 7.79375C17.3744 7.85562 16.9975 7.93438 16.6319 8.03563C16.2663 8.13125 15.9063 8.24375 15.5519 8.37313L15.985 9.41375C16.3394 9.28438 16.6994 9.1775 17.065 9.0875C17.4363 8.9975 17.8075 8.92437 18.19 8.86812C18.7131 8.795 19.2419 8.75562 19.7819 8.75562C22.3975 8.75562 24.805 9.65 26.7175 11.1463L27.3025 10.775Z" fill="#EDEDF2"/>
<path d="M19.7875 13.25C19.4612 13.25 19.1462 13.2725 18.8312 13.3175C18.4487 13.3737 18.0775 13.4581 17.7175 13.5706L18.1506 14.6112C18.5106 14.4987 18.8875 14.4256 19.2756 14.3919C19.4444 14.375 19.6131 14.3694 19.7819 14.3694C20.0294 14.3694 20.2656 14.3862 20.5019 14.4144C22.0262 14.6112 23.365 15.4156 24.2537 16.5856L24.5631 16.3888C24.7825 16.2481 25.0356 16.1637 25.2944 16.1412H25.3169C24.1412 14.4537 22.2062 13.3231 20.0125 13.25H19.7875Z" fill="#EDEDF2"/>
<path d="M32.0838 20.8157C32.0725 20.8213 32.0613 20.8269 32.0556 20.8325L32.0838 20.8157Z" fill="#EDEDF2"/>
<path d="M42.5856 11.7087C42.5744 11.6862 42.5631 11.6637 42.5463 11.6412C42.2875 11.2193 41.725 10.9437 40.7069 10.9718C39.7956 10.9943 38.9181 11.3149 38.1475 11.7987L37.3094 12.3218L36.3475 12.9293L35.38 13.5368C35.3294 13.5706 35.2675 13.5762 35.2113 13.5593L29.1419 11.8999L28.4669 11.7143C28.4556 11.7143 28.45 11.7087 28.4388 11.7031C28.36 11.6637 28.2644 11.6412 28.1744 11.6412C28.0788 11.6468 27.9831 11.6749 27.9044 11.7256L27.6063 11.9112L26.0031 12.9181C25.6994 13.1093 25.66 13.5312 25.9075 13.7787C25.9188 13.7899 25.93 13.8012 25.9469 13.8068L30.2219 15.9724L30.3119 16.0174L30.6944 16.2087C30.8013 16.2593 30.8069 16.4056 30.7056 16.4674L30.5144 16.5856L28.1912 18.0481L27.955 18.1999L27.9044 18.1831L26.4588 17.6149L26.0425 17.4518L25.66 17.2999C25.5813 17.2662 25.4969 17.2549 25.4125 17.2662C25.3281 17.2718 25.2438 17.2999 25.1763 17.3449L24.8556 17.5474L24.0175 18.0762C23.7306 18.2562 23.6744 18.6556 23.8938 18.9087C23.905 18.9199 23.9163 18.9312 23.9275 18.9424L24.7769 19.7131C24.4225 19.8987 24.0738 20.0843 23.725 20.2756C23.5169 20.3881 23.3088 20.5062 23.1006 20.6243C22.645 20.8774 22.195 21.1418 21.745 21.4062C21.3625 21.6312 20.9856 21.8618 20.6088 22.0981C20.2319 22.3343 19.8606 22.5706 19.495 22.8124C18.5612 23.4256 17.6388 24.0612 16.7387 24.7193C16.4181 24.9556 16.1031 25.1918 15.7881 25.4281C14.5731 26.3562 13.3919 27.3237 12.2444 28.3362C11.9631 28.5837 11.6819 28.8368 11.4062 29.0899C10.2981 30.1024 9.22937 31.1599 8.19437 32.2456C7.93562 32.5156 7.6825 32.7912 7.42937 33.0668C7.69937 33.3256 7.98062 33.5731 8.27312 33.8149C8.52625 33.5393 8.785 33.2637 9.04375 32.9881C10.0844 31.8912 11.1644 30.8337 12.2838 29.8156C12.565 29.5568 12.8519 29.3037 13.1388 29.0506C14.3313 28.0043 15.5631 27.0031 16.8344 26.0468C17.1831 25.7881 17.5319 25.5293 17.8863 25.2762C18.8763 24.5674 19.8888 23.8812 20.9181 23.2287C20.9631 23.2006 21.0025 23.1724 21.0475 23.1443L21.07 23.1331C21.16 23.0768 21.2444 23.0262 21.3344 22.9699C22.4088 22.3006 23.5056 21.6649 24.6194 21.0631C24.8612 20.9337 25.1031 20.8043 25.3506 20.6749L25.39 20.6524C25.4856 20.6018 25.5813 20.5512 25.6769 20.5062L26.4419 21.1981L26.4756 21.2262C26.5094 21.2543 26.5431 21.2824 26.5769 21.3049C26.7569 21.4287 26.9706 21.4962 27.19 21.4849C27.2069 21.4849 27.2238 21.4849 27.2406 21.4793L29.1588 21.2993L29.3556 21.2824C28.765 21.6987 28.1856 22.1318 27.6175 22.5762C24.4225 25.0681 21.565 27.9762 19.1238 31.2106C18.8594 31.5593 18.6006 31.9137 18.3475 32.2737C17.4138 33.5899 16.5475 34.9568 15.7488 36.3687C15.5575 36.7062 15.3719 37.0437 15.1919 37.3868C15.5688 37.4881 15.9456 37.5724 16.3281 37.6456C16.5138 37.2968 16.7106 36.9481 16.9075 36.6049C17.7513 35.1312 18.6794 33.7137 19.675 32.3524C19.9619 31.9643 20.2488 31.5818 20.5469 31.2049C23.185 27.8468 26.29 24.8656 29.7606 22.3737C30.1488 22.0924 30.5425 21.8224 30.9419 21.5581C31.3413 21.2881 31.7463 21.0181 32.1513 20.7649L36.5613 17.9974L37.6075 17.3393L38.6425 16.6868L40.4706 15.5393C40.51 15.5168 40.5438 15.4943 40.5831 15.4662C40.8025 15.3199 41.0106 15.1624 41.2075 14.9937C41.6519 14.6056 42.0344 14.1499 42.3156 13.6268C42.3213 13.6156 42.3325 13.5987 42.3381 13.5874C42.58 13.1262 42.6981 12.7381 42.7263 12.4118C42.7375 12.1418 42.6869 11.9056 42.5856 11.7087Z" fill="#EDEDF2"/>
<path d="M11.4456 27.5432C9.71875 25.6307 8.63312 23.1219 8.54875 20.3657L7.4125 20.1125C7.44062 23.2625 8.64437 26.1313 10.6075 28.2969C10.8831 28.0438 11.1644 27.7963 11.4456 27.5432Z" fill="#EDEDF2"/>
</g>
<path d="M51.516 18L47.892 9.6H49.992L53.16 17.04H51.924L55.14 9.6H57.072L53.436 18H51.516ZM56.2681 18L60.0121 9.6H61.9321L65.6881 18H63.6481L60.5761 10.584H61.3441L58.2601 18H56.2681ZM58.1401 16.2L58.6561 14.724H62.9761L63.5041 16.2H58.1401ZM67.7577 18V11.184H65.0697V9.6H72.3897V11.184H69.7017V18H67.7577ZM76.0171 18.144C75.3451 18.144 74.7011 18.056 74.0851 17.88C73.4691 17.696 72.9731 17.46 72.5971 17.172L73.2571 15.708C73.6171 15.964 74.0411 16.176 74.5291 16.344C75.0251 16.504 75.5251 16.584 76.0291 16.584C76.4131 16.584 76.7211 16.548 76.9531 16.476C77.1931 16.396 77.3691 16.288 77.4811 16.152C77.5931 16.016 77.6491 15.86 77.6491 15.684C77.6491 15.46 77.5611 15.284 77.3851 15.156C77.2091 15.02 76.9771 14.912 76.6891 14.832C76.4011 14.744 76.0811 14.664 75.7291 14.592C75.3851 14.512 75.0371 14.416 74.6851 14.304C74.3411 14.192 74.0251 14.048 73.7371 13.872C73.4491 13.696 73.2131 13.464 73.0291 13.176C72.8531 12.888 72.7651 12.52 72.7651 12.072C72.7651 11.592 72.8931 11.156 73.1491 10.764C73.4131 10.364 73.8051 10.048 74.3251 9.816C74.8531 9.576 75.5131 9.456 76.3051 9.456C76.8331 9.456 77.3531 9.52 77.8651 9.648C78.3771 9.768 78.8291 9.952 79.2211 10.2L78.6211 11.676C78.2291 11.452 77.8371 11.288 77.4451 11.184C77.0531 11.072 76.6691 11.016 76.2931 11.016C75.9171 11.016 75.6091 11.06 75.3691 11.148C75.1291 11.236 74.9571 11.352 74.8531 11.496C74.7491 11.632 74.6971 11.792 74.6971 11.976C74.6971 12.192 74.7851 12.368 74.9611 12.504C75.1371 12.632 75.3691 12.736 75.6571 12.816C75.9451 12.896 76.2611 12.976 76.6051 13.056C76.9571 13.136 77.3051 13.228 77.6491 13.332C78.0011 13.436 78.3211 13.576 78.6091 13.752C78.8971 13.928 79.1291 14.16 79.3051 14.448C79.4891 14.736 79.5811 15.1 79.5811 15.54C79.5811 16.012 79.4491 16.444 79.1851 16.836C78.9211 17.228 78.5251 17.544 77.9971 17.784C77.4771 18.024 76.8171 18.144 76.0171 18.144ZM80.7894 18V9.6H82.7334V18H80.7894ZM84.6069 18V9.6H86.2149L89.7909 15.528H88.9389L92.4549 9.6H94.0509L94.0749 18H92.2509L92.2389 12.396H92.5749L89.7669 17.112H88.8909L86.0229 12.396H86.4309V18H84.6069Z" fill="#F2F2F7"/>
<path d="M48.996 30V21.6H52.632C53.384 21.6 54.032 21.724 54.576 21.972C55.12 22.212 55.54 22.56 55.836 23.016C56.132 23.472 56.28 24.016 56.28 24.648C56.28 25.272 56.132 25.812 55.836 26.268C55.54 26.716 55.12 27.06 54.576 27.3C54.032 27.54 53.384 27.66 52.632 27.66H50.076L50.94 26.808V30H48.996ZM54.336 30L52.236 26.952H54.312L56.436 30H54.336ZM50.94 27.024L50.076 26.112H52.524C53.124 26.112 53.572 25.984 53.868 25.728C54.164 25.464 54.312 25.104 54.312 24.648C54.312 24.184 54.164 23.824 53.868 23.568C53.572 23.312 53.124 23.184 52.524 23.184H50.076L50.94 22.26V27.024ZM61.4696 30V28.74L61.3496 28.464V26.208C61.3496 25.808 61.2256 25.496 60.9776 25.272C60.7376 25.048 60.3656 24.936 59.8616 24.936C59.5176 24.936 59.1776 24.992 58.8416 25.104C58.5136 25.208 58.2336 25.352 58.0016 25.536L57.3296 24.228C57.6816 23.98 58.1056 23.788 58.6016 23.652C59.0976 23.516 59.6016 23.448 60.1136 23.448C61.0976 23.448 61.8616 23.68 62.4056 24.144C62.9496 24.608 63.2216 25.332 63.2216 26.316V30H61.4696ZM59.5016 30.096C58.9976 30.096 58.5656 30.012 58.2056 29.844C57.8456 29.668 57.5696 29.432 57.3776 29.136C57.1856 28.84 57.0896 28.508 57.0896 28.14C57.0896 27.756 57.1816 27.42 57.3656 27.132C57.5576 26.844 57.8576 26.62 58.2656 26.46C58.6736 26.292 59.2056 26.208 59.8616 26.208H61.5776V27.3H60.0656C59.6256 27.3 59.3216 27.372 59.1536 27.516C58.9936 27.66 58.9136 27.84 58.9136 28.056C58.9136 28.296 59.0056 28.488 59.1896 28.632C59.3816 28.768 59.6416 28.836 59.9696 28.836C60.2816 28.836 60.5616 28.764 60.8096 28.62C61.0576 28.468 61.2376 28.248 61.3496 27.96L61.6376 28.824C61.5016 29.24 61.2536 29.556 60.8936 29.772C60.5336 29.988 60.0696 30.096 59.5016 30.096ZM67.6148 30.096C67.0068 30.096 66.4588 29.96 65.9708 29.688C65.4828 29.408 65.0948 29.02 64.8068 28.524C64.5268 28.028 64.3868 27.444 64.3868 26.772C64.3868 26.092 64.5268 25.504 64.8068 25.008C65.0948 24.512 65.4828 24.128 65.9708 23.856C66.4588 23.584 67.0068 23.448 67.6148 23.448C68.1588 23.448 68.6348 23.568 69.0428 23.808C69.4508 24.048 69.7668 24.412 69.9908 24.9C70.2148 25.388 70.3268 26.012 70.3268 26.772C70.3268 27.524 70.2188 28.148 70.0028 28.644C69.7868 29.132 69.4748 29.496 69.0668 29.736C68.6668 29.976 68.1828 30.096 67.6148 30.096ZM67.9388 28.56C68.2428 28.56 68.5188 28.488 68.7668 28.344C69.0148 28.2 69.2108 27.996 69.3548 27.732C69.5068 27.46 69.5828 27.14 69.5828 26.772C69.5828 26.396 69.5068 26.076 69.3548 25.812C69.2108 25.548 69.0148 25.344 68.7668 25.2C68.5188 25.056 68.2428 24.984 67.9388 24.984C67.6268 24.984 67.3468 25.056 67.0988 25.2C66.8508 25.344 66.6508 25.548 66.4988 25.812C66.3548 26.076 66.2828 26.396 66.2828 26.772C66.2828 27.14 66.3548 27.46 66.4988 27.732C66.6508 27.996 66.8508 28.2 67.0988 28.344C67.3468 28.488 67.6268 28.56 67.9388 28.56ZM69.6308 30V28.68L69.6668 26.76L69.5468 24.852V21.096H71.4188V30H69.6308ZM76.9913 30V28.74L76.8713 28.464V26.208C76.8713 25.808 76.7473 25.496 76.4993 25.272C76.2593 25.048 75.8873 24.936 75.3833 24.936C75.0393 24.936 74.6993 24.992 74.3633 25.104C74.0353 25.208 73.7553 25.352 73.5233 25.536L72.8513 24.228C73.2033 23.98 73.6273 23.788 74.1233 23.652C74.6193 23.516 75.1233 23.448 75.6353 23.448C76.6193 23.448 77.3833 23.68 77.9273 24.144C78.4713 24.608 78.7433 25.332 78.7433 26.316V30H76.9913ZM75.0233 30.096C74.5193 30.096 74.0873 30.012 73.7273 29.844C73.3673 29.668 73.0913 29.432 72.8993 29.136C72.7073 28.84 72.6113 28.508 72.6113 28.14C72.6113 27.756 72.7033 27.42 72.8873 27.132C73.0793 26.844 73.3793 26.62 73.7873 26.46C74.1953 26.292 74.7273 26.208 75.3833 26.208H77.0993V27.3H75.5873C75.1473 27.3 74.8433 27.372 74.6753 27.516C74.5153 27.66 74.4353 27.84 74.4353 28.056C74.4353 28.296 74.5273 28.488 74.7113 28.632C74.9033 28.768 75.1633 28.836 75.4913 28.836C75.8033 28.836 76.0833 28.764 76.3313 28.62C76.5793 28.468 76.7593 28.248 76.8713 27.96L77.1593 28.824C77.0233 29.24 76.7753 29.556 76.4153 29.772C76.0553 29.988 75.5913 30.096 75.0233 30.096ZM80.3176 30V23.544H82.1056V25.368L81.8536 24.84C82.0456 24.384 82.3536 24.04 82.7776 23.808C83.2016 23.568 83.7176 23.448 84.3256 23.448V25.176C84.2456 25.168 84.1736 25.164 84.1096 25.164C84.0456 25.156 83.9776 25.152 83.9056 25.152C83.3936 25.152 82.9776 25.3 82.6576 25.596C82.3456 25.884 82.1896 26.336 82.1896 26.952V30H80.3176Z" fill="#F2F2F7"/>
</g>
<defs>
<clipPath id="clip0_1044_10544">
<rect width="96" height="40" fill="white"/>
</clipPath>
<clipPath id="clip1_1044_10544">
<rect width="41.7375" height="36" fill="white" transform="translate(1 2)"/>
</clipPath>
</defs>
</svg>